<svg width="31" height="33" viewBox="0 0 31 33" fill="none" xmlns="http://www.w3.org/2000/svg">
<path d="M15.3498 11.6577C14.1523 11.6577 13.0039 12.1589 12.1572 13.0511C11.3105 13.9433 10.8348 15.1533 10.8348 16.4151C10.8348 17.6768 11.3105 18.8869 12.1572 19.7791C13.0039 20.6713 14.1523 21.1725 15.3498 21.1725C16.5472 21.1725 17.6957 20.6713 18.5424 19.7791C19.3891 18.8869 19.8648 17.6768 19.8648 16.4151C19.8648 15.1533 19.3891 13.9433 18.5424 13.0511C17.6957 12.1589 16.5472 11.6577 15.3498 11.6577ZM15.3498 8.48606C17.3455 8.48606 19.2596 9.32144 20.6708 10.8084C22.082 12.2954 22.8748 14.3122 22.8748 16.4151C22.8748 18.518 22.082 20.5348 20.6708 22.0218C19.2596 23.5087 17.3455 24.3441 15.3498 24.3441C13.354 24.3441 11.44 23.5087 10.0288 22.0218C8.61761 20.5348 7.8248 18.518 7.8248 16.4151C7.8248 14.3122 8.61761 12.2954 10.0288 10.8084C11.44 9.32144 13.354 8.48606 15.3498 8.48606ZM25.1323 8.08961C25.1323 8.61534 24.9341 9.11954 24.5813 9.49128C24.2285 9.86303 23.75 10.0719 23.251 10.0719C22.7521 10.0719 22.2736 9.86303 21.9208 9.49128C21.568 9.11954 21.3698 8.61534 21.3698 8.08961C21.3698 7.56389 21.568 7.05969 21.9208 6.68795C22.2736 6.3162 22.7521 6.10736 23.251 6.10736C23.75 6.10736 24.2285 6.3162 24.5813 6.68795C24.9341 7.05969 25.1323 7.56389 25.1323 8.08961ZM15.3498 3.72865C11.6264 3.72865 11.0184 3.73975 9.28615 3.82063C8.10623 3.8793 7.3146 4.04581 6.58016 4.34711C5.92699 4.61353 5.45593 4.93227 4.95477 5.46193C4.48371 5.94148 4.12153 6.52693 3.89525 7.1746C3.6093 7.95165 3.45127 8.7842 3.39709 10.0259C3.31883 11.7766 3.3098 12.3887 3.3098 16.4151C3.3098 20.3384 3.32034 20.979 3.39709 22.8043C3.45278 24.046 3.6108 24.8817 3.89525 25.654C4.1511 26.3438 4.4521 26.8402 4.95176 27.3667C5.45894 27.8995 5.93001 28.2182 6.57715 28.4815C7.32062 28.7844 8.11225 28.9525 9.28615 29.0096C10.9477 29.092 11.5286 29.1015 15.3498 29.1015C19.0732 29.1015 19.6812 29.0904 21.4134 29.0096C22.5903 28.9509 23.3835 28.7844 24.1179 28.4847C24.7696 28.2167 25.2437 27.8979 25.7433 27.3714C26.2505 26.837 26.553 26.3406 26.8028 25.6588C27.0888 24.8769 27.2483 24.0412 27.3025 22.8043C27.3808 21.0536 27.3898 20.4415 27.3898 16.4151C27.3898 12.4918 27.3792 11.8511 27.3025 10.0259C27.2468 8.78578 27.0888 7.94848 26.8028 7.1746C26.576 6.5276 26.2145 5.94237 25.7448 5.46193C25.2899 4.96533 24.7342 4.58366 24.1194 4.34553C23.382 4.04422 22.5903 3.87771 21.4134 3.82063C19.7519 3.73816 19.171 3.72865 15.3498 3.72865ZM15.3498 0.557037C19.4389 0.557037 19.9491 0.572895 21.5534 0.652186C23.1562 0.731476 24.2473 0.996306 25.2075 1.38959C26.2008 1.79238 27.0376 2.3379 27.8744 3.21802C28.6397 4.01076 29.2318 4.96968 29.6097 6.02807C29.9814 7.03822 30.2342 8.18952 30.3095 9.8784C30.3802 11.5689 30.3998 12.1065 30.3998 16.4151C30.3998 20.7237 30.3847 21.2613 30.3095 22.9518C30.2342 24.6407 29.9814 25.7904 29.6097 26.8021C29.2329 27.8611 28.6406 28.8202 27.8744 29.6122C27.1218 30.4183 26.2118 31.0422 25.2075 31.4406C24.2488 31.8323 23.1562 32.0987 21.5534 32.178C19.9491 32.2525 19.4389 32.2731 15.3498 32.2731C11.2607 32.2731 10.7505 32.2573 9.14619 32.178C7.54336 32.0987 6.45224 31.8323 5.49205 31.4406C4.4872 31.0433 3.57698 30.4193 2.82519 29.6122C2.05976 28.8196 1.46758 27.8606 1.08993 26.8021C0.716689 25.792 0.465354 24.6407 0.390105 22.9518C0.31937 21.2613 0.299805 20.7237 0.299805 16.4151C0.299805 12.1065 0.314855 11.5689 0.390105 9.8784C0.465354 8.18793 0.716689 7.03981 1.08993 6.02807C1.46653 4.96903 2.05885 4.00984 2.82519 3.21802C3.5772 2.41121 4.48736 1.78719 5.49205 1.38959C6.45224 0.996306 7.54186 0.731476 9.14619 0.652186C10.7505 0.577653 11.2607 0.557037 15.3498 0.557037Z" fill="#101010"/>
</svg>
