<svg width="22" height="23" viewBox="0 0 22 23" fill="none" xmlns="http://www.w3.org/2000/svg">
<path d="M11.0009 2.63155C13.5848 0.140123 17.5777 0.222816 20.0669 2.90089C22.5551 5.58014 22.6409 9.8471 20.3265 12.6303L10.9987 22.6622L1.67308 12.6303C-0.641281 9.8471 -0.554383 5.57305 1.93267 2.90089C4.42412 0.22636 8.40935 0.136579 11.0009 2.63155ZM18.5094 4.57011C16.8594 2.79575 14.1974 2.72369 12.4705 4.38936L11.002 5.80459L9.53243 4.39054C7.79996 2.72251 5.14351 2.79575 3.48914 4.57247C1.85017 6.33265 1.76767 9.15012 3.27795 11.0119L10.9998 19.3178L18.7217 11.0131C20.233 9.15012 20.1505 6.33619 18.5094 4.57011Z" fill="#1C1C27"/>
</svg>
