<svg width="20" height="22" viewBox="0 0 20 22" fill="none" xmlns="http://www.w3.org/2000/svg">
<path d="M1.6665 10.5302C1.6665 15.3798 5.39734 19.3109 9.99984 19.3109C14.6023 19.3109 18.3332 15.3798 18.3332 10.5302C18.3332 5.68057 14.6023 1.74942 9.99984 1.74942C5.39734 1.74942 1.6665 5.68057 1.6665 10.5302Z" stroke="#838383" stroke-width="1.5" stroke-linecap="round" stroke-linejoin="round"/>
<path d="M10.833 1.79333C10.833 1.79333 13.333 5.26174 13.333 10.5302C13.333 15.7986 10.833 19.2671 10.833 19.2671" stroke="#838383" stroke-width="1.5" stroke-linecap="round" stroke-linejoin="round"/>
<path d="M9.1665 19.2671C9.1665 19.2671 6.6665 15.7986 6.6665 10.5302C6.6665 5.26174 9.1665 1.79333 9.1665 1.79333" stroke="#838383" stroke-width="1.5" stroke-linecap="round" stroke-linejoin="round"/>
<path d="M2.19141 13.6035H17.8081" stroke="#838383" stroke-width="1.5" stroke-linecap="round" stroke-linejoin="round"/>
<path d="M2.19141 7.45691H17.8081" stroke="#838383" stroke-width="1.5" stroke-linecap="round" stroke-linejoin="round"/>
</svg>
