<svg width="31" height="33" viewBox="0 0 31 33" fill="none" xmlns="http://www.w3.org/2000/svg">
<path d="M15.05 29.1015C18.2432 29.1015 21.3056 27.7649 23.5635 25.3858C25.8215 23.0066 27.09 19.7797 27.09 16.4151C27.09 13.0504 25.8215 9.82359 23.5635 7.44442C21.3056 5.06525 18.2432 3.72865 15.05 3.72865C11.8568 3.72865 8.79437 5.06525 6.53643 7.44442C4.27849 9.82359 3.01 13.0504 3.01 16.4151C3.01 19.7797 4.27849 23.0066 6.53643 25.3858C8.79437 27.7649 11.8568 29.1015 15.05 29.1015ZM15.05 32.2731C6.73788 32.2731 0 25.1735 0 16.4151C0 7.65669 6.73788 0.557037 15.05 0.557037C23.3621 0.557037 30.1 7.65669 30.1 16.4151C30.1 25.1735 23.3621 32.2731 15.05 32.2731ZM10.3694 18.2705L6.60995 17.0351C5.79726 16.7735 5.79274 16.1836 6.79206 15.7602L21.4402 9.79753C22.2905 9.43279 22.7721 9.89426 22.4967 11.0503L20.0029 23.4513C19.8284 24.3346 19.3242 24.5455 18.6244 24.138L14.7851 21.144L12.9957 22.9645C12.8121 23.1516 12.6631 23.3118 12.3801 23.3514C12.0987 23.3926 11.8669 23.3038 11.6969 22.8122L10.3875 18.2594L10.3694 18.2721V18.2705Z" fill="#101010"/>
</svg>
