<svg width="31" height="22" viewBox="0 0 31 22" fill="none" xmlns="http://www.w3.org/2000/svg">
<path d="M0 2.98603C0 1.89219 0.575032 1.30237 1.7251 1.21658L6.15681 1.24875C6.45424 1.24875 6.65253 1.40961 6.75167 1.73133C7.20773 3.33992 7.71832 4.72868 8.28344 5.89759C8.84856 7.0665 9.58718 8.41236 10.4993 9.93516C10.5786 10.1282 10.7075 10.2247 10.886 10.2247C11.0248 10.2247 11.1338 10.1496 11.2131 9.9995L11.3024 9.64561L11.3321 4.07988C11.3321 3.69381 11.2478 3.43644 11.0793 3.30775C10.9107 3.17906 10.5984 3.08255 10.1424 3.01821C9.78547 2.95386 9.60701 2.71793 9.60701 2.31042C9.60701 2.22463 9.61692 2.16029 9.63675 2.11739C10.0532 0.723278 11.2429 0.0262209 13.2059 0.0262209L14.8715 -0.00595093C15.625 -0.00595093 16.2496 0.197804 16.7453 0.605315C17.2411 1.01283 17.4889 1.65626 17.4889 2.53563V9.83864C17.6277 9.94588 17.7566 9.9995 17.8756 9.9995C18.173 9.9995 18.4308 9.80647 18.6489 9.42041C20.8301 6.11743 22.0099 3.90829 22.1883 2.793C22.1883 2.77155 22.2082 2.71793 22.2478 2.63214C22.3866 2.31042 22.6146 2.0316 22.9319 1.79567C23.2492 1.55975 23.5268 1.39889 23.7647 1.3131C23.844 1.2702 23.9332 1.24875 24.0324 1.24875H28.6426L28.94 1.28092C29.3366 1.28092 29.6439 1.48468 29.862 1.89219C29.9413 2.02088 29.9959 2.16029 30.0256 2.31042C30.0554 2.46056 30.0752 2.61069 30.0851 2.76083C30.095 2.91097 30.1 2.99676 30.1 3.01821V3.24341C29.9612 4.12277 29.6092 5.06112 29.0441 6.05845C28.479 7.05578 27.7602 8.13353 26.8877 9.29172C26.0153 10.4499 25.47 11.2113 25.2519 11.5759C25.0734 11.8333 24.9842 12.0692 24.9842 12.2837C24.9842 12.4553 25.0635 12.6483 25.2221 12.8628L29.5646 18.7824C29.8025 19.1256 29.9215 19.5009 29.9215 19.9084C29.9215 20.4017 29.7431 20.8093 29.3861 21.131C29.0292 21.4527 28.6029 21.635 28.1072 21.6779L27.6016 21.7101H23.0806C23.0608 21.7101 23.0211 21.7154 22.9616 21.7262C22.9022 21.7369 22.8625 21.7422 22.8427 21.7422C22.4064 21.7422 21.9999 21.5385 21.6232 21.131C21.4844 20.9594 20.5525 19.694 18.8274 17.3347C18.7282 17.1846 18.5894 17.0451 18.411 16.9165C18.3316 17.2596 18.2275 17.7529 18.0987 18.3964C17.9698 19.0398 17.8756 19.5009 17.8161 19.7798L17.7269 20.3267C17.5286 21.0774 17.1122 21.5278 16.4777 21.6779L16.0613 21.7101H13.1464C11.5006 21.7101 9.85982 20.895 8.22396 19.265C6.58809 17.635 5.11581 15.5277 3.80711 12.9432C2.49842 10.3588 1.27895 7.35068 0.148715 3.91902C0.0495718 3.64019 0 3.3292 0 2.98603ZM17.8756 11.3185C17.4592 11.3185 17.0824 11.1952 16.7453 10.9486C16.4083 10.7019 16.2397 10.3641 16.2397 9.93516V2.53563C16.2397 2.10667 16.1406 1.80104 15.9423 1.61873C15.744 1.43642 15.397 1.34527 14.9013 1.34527L13.2059 1.40961C12.3533 1.40961 11.7089 1.57047 11.2726 1.89219C12.1451 2.3426 12.5813 3.07183 12.5813 4.07988V9.74213C12.5417 10.2783 12.3434 10.7234 11.9865 11.0773C11.6295 11.4312 11.233 11.6081 10.7967 11.6081C10.2019 11.6081 9.74581 11.2971 9.42855 10.6751C7.88191 8.14426 6.73185 5.74209 5.97835 3.46861L5.71067 2.63214L1.75484 2.59997C1.49707 2.59997 1.35331 2.61606 1.32357 2.64823C1.29382 2.6804 1.27895 2.77155 1.27895 2.92169C1.27895 3.11472 1.29878 3.31848 1.33844 3.53296L1.96304 5.33458C3.62865 9.98878 5.43802 13.6564 7.39115 16.3374C9.34428 19.0184 11.2627 20.3588 13.1464 20.3588H16.1207C16.2397 20.3588 16.3289 20.3213 16.3884 20.2462C16.4479 20.1712 16.4975 20.0264 16.5371 19.8119L16.5966 19.4902L17.1617 16.6591C17.3204 16.273 17.4592 16.0156 17.5781 15.887C17.7963 15.651 18.054 15.5331 18.3515 15.5331C18.8274 15.5331 19.3132 15.8441 19.8089 16.466L22.337 19.9406C22.4957 20.2194 22.6642 20.3588 22.8427 20.3588H27.7503C28.3451 20.3588 28.6426 20.198 28.6426 19.8763C28.6426 19.769 28.6128 19.6618 28.5533 19.5546L24.2406 13.7314C23.9035 13.281 23.735 12.7985 23.735 12.2837C23.735 11.769 23.8936 11.2757 24.2108 10.8038C24.4686 10.3748 24.9693 9.6617 25.7129 8.66437C26.4565 7.66704 27.1058 6.73406 27.661 5.86542C28.2162 4.99678 28.5831 4.20856 28.7615 3.50078L28.8508 3.08255C28.8309 3.03965 28.821 2.96995 28.821 2.87343C28.821 2.77692 28.8111 2.69649 28.7913 2.63214H24.1216C23.8242 2.76083 23.5862 2.95386 23.4078 3.21124L23.2293 3.8225C22.7336 5.30241 21.4348 7.58661 19.333 10.6751C18.9166 11.1041 18.4308 11.3185 17.8756 11.3185Z" fill="#101010"/>
</svg>
