<svg width="31" height="33" viewBox="0 0 31 33" fill="none" xmlns="http://www.w3.org/2000/svg">
<path d="M7.90577 26.7133L8.99539 27.3841C10.8329 28.5133 12.9228 29.1061 15.05 29.1015C17.4313 29.1015 19.7591 28.3575 21.7391 26.9635C23.719 25.5695 25.2622 23.5881 26.1735 21.27C27.0848 18.9518 27.3232 16.401 26.8586 13.9401C26.3941 11.4792 25.2474 9.21865 23.5636 7.44442C21.8797 5.67019 19.7344 4.46192 17.3989 3.97241C15.0634 3.4829 12.6425 3.73414 10.4425 4.69434C8.24248 5.65455 6.36209 7.2806 5.03912 9.36687C3.71615 11.4531 3.01002 13.9059 3.01002 16.4151C3.01002 18.6923 3.5774 20.8759 4.64143 22.7964L5.27654 23.9445L4.29378 27.752L7.90577 26.7133ZM0.00604013 32.2731L2.0408 24.3948C0.700052 21.9731 -0.0043504 19.2188 2.02155e-05 16.4151C2.02155e-05 7.65668 6.7379 0.557037 15.05 0.557037C23.3621 0.557037 30.1 7.65668 30.1 16.4151C30.1 25.1735 23.3621 32.2731 15.05 32.2731C12.3903 32.2776 9.77747 31.536 7.47986 30.1244L0.00604013 32.2731ZM9.61846 8.97449C9.82013 8.95863 10.0233 8.95863 10.225 8.96814C10.3062 8.97449 10.3875 8.984 10.4688 8.99352C10.7081 9.02206 10.9715 9.17588 11.0602 9.38838C11.5087 10.4604 11.9452 11.5403 12.3666 12.6234C12.4599 12.8645 12.4042 13.1737 12.2266 13.475C12.1045 13.6787 11.9724 13.8756 11.8308 14.0649C11.6607 14.2949 11.295 14.7167 11.295 14.7167C11.295 14.7167 11.146 14.9038 11.2032 15.1369C11.2243 15.2257 11.2935 15.3542 11.3567 15.462L11.4455 15.6127C11.8308 16.2898 12.3485 16.9765 12.9806 17.6235C13.1612 17.8074 13.3373 17.9961 13.5269 18.1722C14.2313 18.8271 15.0289 19.3615 15.8898 19.758L15.8973 19.7611C16.0252 19.8198 16.09 19.8515 16.2766 19.9356C16.3699 19.9768 16.4662 20.0133 16.564 20.0402C16.6651 20.0674 16.7716 20.0622 16.8699 20.0255C16.9682 19.9888 17.054 19.9222 17.1164 19.8341C18.206 18.4433 18.3053 18.3529 18.3143 18.3529V18.3561C18.39 18.2817 18.48 18.2252 18.5781 18.1905C18.6762 18.1558 18.7803 18.1436 18.8832 18.1547C18.9735 18.1611 19.0653 18.1785 19.1496 18.2181C19.9488 18.6035 21.2566 19.2045 21.2566 19.2045L22.1325 19.6184C22.28 19.6929 22.414 19.869 22.4185 20.0386C22.4245 20.1449 22.4335 20.3162 22.3989 20.6301C22.3507 21.0409 22.2334 21.5341 22.116 21.7925C22.0356 21.9689 21.9289 22.1306 21.7999 22.2715C21.6481 22.4395 21.4818 22.5924 21.3033 22.7282C21.2415 22.7771 21.1788 22.8247 21.1151 22.8709C20.9279 22.996 20.7356 23.1124 20.5387 23.2198C20.1512 23.4366 19.7233 23.5612 19.2851 23.5845C19.0066 23.6004 18.7282 23.6226 18.4483 23.6067C18.4362 23.6067 17.5934 23.4687 17.5934 23.4687C15.4537 22.8757 13.4749 21.7647 11.8143 20.2242C11.4741 19.9086 11.1596 19.5692 10.8375 19.2315C9.49806 17.828 8.4867 16.3136 7.87266 14.8832C7.55837 14.1811 7.3886 13.417 7.37451 12.6409C7.36831 11.678 7.667 10.7405 8.22333 9.97672C8.33319 9.82765 8.43704 9.67224 8.61613 9.49304C8.80727 9.30275 8.92767 9.20126 9.0586 9.13148C9.23269 9.03955 9.4226 8.98562 9.61696 8.9729L9.61846 8.97449Z" fill="#101010"/>
</svg>
